<svg version="1.1" viewBox="0.0 0.0 410.0 886.0" fill="none" stroke="none" stroke-linecap="square" stroke-miterlimit="10" xmlns:xlink="http://www.w3.org/1999/xlink" xmlns="http://www.w3.org/2000/svg"><clipPath id="p.0"><path d="m0 0l410.0 0l0 886.0l-410.0 0l0 -886.0z" clip-rule="nonzero"/></clipPath><g clip-path="url(#p.0)"><path fill="#000000" fill-opacity="0.0" d="m0 0l410.0 0l0 886.0l-410.0 0z" fill-rule="evenodd"/><path fill="#000000" fill-opacity="0.0" d="m42.501312 685.0c5.2497826 0.666687 16.915573 2.833313 31.498688 4.0c14.583115 1.166687 37.666664 2.2497559 56.0 3.0c18.333328 0.75024414 35.0 1.3346558 54.0 1.5013428c19.0 0.16662598 43.0 -0.16802979 60.0 -0.5013428c17.0 -0.333313 29.0 -0.66534424 42.0 -1.4986572c13.0 -0.833374 25.666656 -2.0013428 36.0 -3.5013428c10.3333435 -1.5 20.0831 -4.0822144 26.0 -5.498657c5.9169006 -1.4165039 6.2510986 -1.5831299 9.501312 -3.0c3.2502136 -1.4169312 6.7502136 -3.5844727 10.0 -5.501343c3.2497864 -1.9168701 7.165344 -4.250244 9.498688 -6.0c2.3333435 -1.7497559 3.7510986 -3.7489014 4.5013123 -4.498657" fill-rule="evenodd"/><path stroke="#000000" stroke-width="1.0" stroke-linejoin="round" stroke-linecap="butt" d="m42.501312 685.0c5.2497826 0.666687 16.915573 2.833313 31.498688 4.0c14.583115 1.166687 37.666664 2.2497559 56.0 3.0c18.333328 0.75024414 35.0 1.3346558 54.0 1.5013428c19.0 0.16662598 43.0 -0.16802979 60.0 -0.5013428c17.0 -0.333313 29.0 -0.66534424 42.0 -1.4986572c13.0 -0.833374 25.666656 -2.0013428 36.0 -3.5013428c10.3333435 -1.5 20.0831 -4.0822144 26.0 -5.498657c5.9169006 -1.4165039 6.2510986 -1.5831299 9.501312 -3.0c3.2502136 -1.4169312 6.7502136 -3.5844727 10.0 -5.501343c3.2497864 -1.9168701 7.165344 -4.250244 9.498688 -6.0c2.3333435 -1.7497559 3.7510986 -3.7489014 4.5013123 -4.498657" fill-rule="evenodd"/><path fill="#000000" fill-opacity="0.0" d="m40.0 647.50134c8.583553 -0.833374 29.501312 -3.666687 51.501312 -5.0c22.0 -1.333374 55.415573 -2.416504 80.49869 -3.0c25.083115 -0.5835571 46.416443 -0.41778564 70.0 -0.5013428c23.583557 -0.08355713 50.834656 -0.333313 71.50131 0c20.666656 0.333313 40.998688 1.7497559 52.498688 2.0c11.5 0.25024414 13.751099 -0.41558838 16.501312 -0.49865723" fill-rule="evenodd"/><path stroke="#000000" stroke-width="1.0" stroke-linejoin="round" stroke-linecap="butt" d="m40.0 647.50134c8.583553 -0.833374 29.501312 -3.666687 51.501312 -5.0c22.0 -1.333374 55.415573 -2.416504 80.49869 -3.0c25.083115 -0.5835571 46.416443 -0.41778564 70.0 -0.5013428c23.583557 -0.08355713 50.834656 -0.333313 71.50131 0c20.666656 0.333313 40.998688 1.7497559 52.498688 2.0c11.5 0.25024414 13.751099 -0.41558838 16.501312 -0.49865723" fill-rule="evenodd"/><path fill="#000000" fill-opacity="0.0" d="m41.501312 669.50134c14.5 0.24975586 60.666664 1.2489014 87.0 1.4986572c26.333328 0.24975586 43.83333 0.24975586 71.0 0c27.166672 -0.24975586 69.75021 -0.74890137 92.0 -1.4986572c22.249786 -0.7498169 29.915588 -1.833374 41.498688 -3.0c11.583099 -1.166687 21.0 -2.749817 28.0 -4.0c7.0 -1.2502441 10.3333435 -2.5013428 14.0 -3.5013428c3.6666565 -1.0 6.6666565 -2.0822144 8.0 -2.4986572" fill-rule="evenodd"/><path stroke="#000000" stroke-width="1.0" stroke-linejoin="round" stroke-linecap="butt" d="m41.501312 669.50134c14.5 0.24975586 60.666664 1.2489014 87.0 1.4986572c26.333328 0.24975586 43.83333 0.24975586 71.0 0c27.166672 -0.24975586 69.75021 -0.74890137 92.0 -1.4986572c22.249786 -0.7498169 29.915588 -1.833374 41.498688 -3.0c11.583099 -1.166687 21.0 -2.749817 28.0 -4.0c7.0 -1.2502441 10.3333435 -2.5013428 14.0 -3.5013428c3.6666565 -1.0 6.6666565 -2.0822144 8.0 -2.4986572" fill-rule="evenodd"/><path fill="#000000" fill-opacity="0.0" d="m40.5 647.5c0.16666794 3.666687 0.74978256 15.833313 1.0 22.0c0.25021744 6.166687 0.41775894 12.5 0.50131226 15.0" fill-rule="evenodd"/><path stroke="#000000" stroke-width="1.0" stroke-linejoin="round" stroke-linecap="butt" d="m40.5 647.5c0.16666794 3.666687 0.74978256 15.833313 1.0 22.0c0.25021744 6.166687 0.41775894 12.5 0.50131226 15.0" fill-rule="evenodd"/><path fill="#000000" fill-opacity="0.0" d="m383.0 641.0c-0.083099365 2.7502441 -0.33203125 12.751099 -0.49868774 16.501343c-0.1666565 3.750183 -0.41775513 5.0 -0.50131226 6.0" fill-rule="evenodd"/><path stroke="#000000" stroke-width="1.0" stroke-linejoin="round" stroke-linecap="butt" d="m383.0 641.0c-0.083099365 2.7502441 -0.33203125 12.751099 -0.49868774 16.501343c-0.1666565 3.750183 -0.41775513 5.0 -0.50131226 6.0" fill-rule="evenodd"/><path fill="#000000" fill-opacity="0.0" d="m92.0 641.9992c3.9168854 -0.5 15.917763 -2.083496 23.501312 -3.0c7.5835495 -0.9164429 8.833336 -1.4155273 22.0 -2.4986572c13.166672 -1.0831299 42.66667 -3.2497559 57.0 -4.0c14.333328 -0.75024414 11.833328 -0.75109863 29.0 -0.5013428c17.166672 0.2498169 53.333344 1.166687 74.0 2.0c20.666656 0.833374 35.666656 2.0 50.0 3.0c14.3333435 1.0 30.0 2.5 36.0 3.0" fill-rule="evenodd"/><path stroke="#000000" stroke-width="1.0" stroke-linejoin="round" stroke-linecap="butt" d="m92.0 641.9992c3.9168854 -0.5 15.917763 -2.083496 23.501312 -3.0c7.5835495 -0.9164429 8.833336 -1.4155273 22.0 -2.4986572c13.166672 -1.0831299 42.66667 -3.2497559 57.0 -4.0c14.333328 -0.75024414 11.833328 -0.75109863 29.0 -0.5013428c17.166672 0.2498169 53.333344 1.166687 74.0 2.0c20.666656 0.833374 35.666656 2.0 50.0 3.0c14.3333435 1.0 30.0 2.5 36.0 3.0" fill-rule="evenodd"/><path fill="#000000" fill-opacity="0.0" d="m136.75 636.25c0.9168854 -1.833313 4.584427 -9.166687 5.5013123 -11.0" fill-rule="evenodd"/><path stroke="#000000" stroke-width="1.0" stroke-linejoin="round" stroke-linecap="butt" d="m136.75 636.25c0.9168854 -1.833313 4.584427 -9.166687 5.5013123 -11.0" fill-rule="evenodd"/><path fill="#000000" fill-opacity="0.0" d="m301.005 634.2493c-10.669159 -2.366394 -48.183334 -11.437622 -64.015 -14.198425c-15.831665 -2.7608032 -15.143341 -1.7747803 -30.975006 -2.366394c-15.831665 -0.59161377 -53.345825 -0.98602295 -64.015 -1.1831665" fill-rule="evenodd"/><path stroke="#000000" stroke-width="1.0" stroke-linejoin="round" stroke-linecap="butt" d="m301.005 634.2493c-10.669159 -2.366394 -48.183334 -11.437622 -64.015 -14.198425c-15.831665 -2.7608032 -15.143341 -1.7747803 -30.975006 -2.366394c-15.831665 -0.59161377 -53.345825 -0.98602295 -64.015 -1.1831665" fill-rule="evenodd"/><path fill="#000000" fill-opacity="0.0" d="m142.0 624.79663c6.932419 -0.10266113 28.236923 -0.41119385 41.594498 -0.6159668c13.35759 -0.20471191 26.038834 -1.3295898 38.550995 -0.6126709c12.5121765 0.71698 26.377014 3.2763062 36.52202 4.9144287c10.144989 1.6381226 20.289978 4.095337 24.347992 4.9143677" fill-rule="evenodd"/><path stroke="#000000" stroke-width="1.0" stroke-linejoin="round" stroke-linecap="butt" d="m142.0 624.79663c6.932419 -0.10266113 28.236923 -0.41119385 41.594498 -0.6159668c13.35759 -0.20471191 26.038834 -1.3295898 38.550995 -0.6126709c12.5121765 0.71698 26.377014 3.2763062 36.52202 4.9144287c10.144989 1.6381226 20.289978 4.095337 24.347992 4.9143677" fill-rule="evenodd"/><path fill="#000000" fill-opacity="0.0" d="m27.521872 655.0c-0.083114624 4.91687 -1.0822392 17.751099 -0.49868774 29.501343c0.5835533 11.750183 3.333334 34.166626 4.0 41.0" fill-rule="evenodd"/><path stroke="#000000" stroke-width="1.0" stroke-linejoin="round" stroke-linecap="butt" d="m27.521872 655.0c-0.083114624 4.91687 -1.0822392 17.751099 -0.49868774 29.501343c0.5835533 11.750183 3.333334 34.166626 4.0 41.0" fill-rule="evenodd"/><path fill="#000000" fill-opacity="0.0" d="m42.02231 686.0c-0.4164467 6.583557 -2.0822372 32.917786 -2.4986877 39.501343" fill-rule="evenodd"/><path stroke="#000000" stroke-width="1.0" stroke-linejoin="round" stroke-linecap="butt" d="m42.02231 686.0c-0.4164467 6.583557 -2.0822372 32.917786 -2.4986877 39.501343" fill-rule="evenodd"/><path fill="#000000" fill-opacity="0.0" d="m191.02231 760.0c-0.41644287 -2.2497559 -1.7489014 -8.665344 -2.4986877 -13.498657c-0.7497864 -4.833374 -1.6666718 -11.001343 -2.0 -15.501343c-0.33332825 -4.5 0 -8.582214 0 -11.498657c0 -2.916504 -0.16667175 -3.166687 0 -6.0c0.16667175 -2.833374 0.5835571 -7.833374 1.0 -11.0c0.41644287 -3.166687 1.2489014 -6.666687 1.4986877 -8.0" fill-rule="evenodd"/><path stroke="#000000" stroke-width="1.0" stroke-linejoin="round" stroke-linecap="butt" d="m191.02231 760.0c-0.41644287 -2.2497559 -1.7489014 -8.665344 -2.4986877 -13.498657c-0.7497864 -4.833374 -1.6666718 -11.001343 -2.0 -15.501343c-0.33332825 -4.5 0 -8.582214 0 -11.498657c0 -2.916504 -0.16667175 -3.166687 0 -6.0c0.16667175 -2.833374 0.5835571 -7.833374 1.0 -11.0c0.41644287 -3.166687 1.2489014 -6.666687 1.4986877 -8.0" fill-rule="evenodd"/><path fill="#000000" fill-opacity="0.0" d="m165.76115 766.2482c1.7502136 -0.666687 1.2510986 -3.333313 10.501312 -4.0c9.250214 -0.666687 36.083557 -0.75024414 45.0 0c8.916443 0.7501831 7.082245 3.7510986 8.498688 4.5012817" fill-rule="evenodd"/><path stroke="#000000" stroke-width="1.0" stroke-linejoin="round" stroke-linecap="butt" d="m165.76115 766.2482c1.7502136 -0.666687 1.2510986 -3.333313 10.501312 -4.0c9.250214 -0.666687 36.083557 -0.75024414 45.0 0c8.916443 0.7501831 7.082245 3.7510986 8.498688 4.5012817" fill-rule="evenodd"/><path fill="#000000" fill-opacity="0.0" d="m166.51181 766.7507c1.541565 0.29174805 0.20779419 1.2921753 9.249344 1.7506714c9.041565 0.45843506 36.0 1.291748 45.0 1.0c9.0 -0.29180908 7.5 -2.2922363 9.0 -2.7506714" fill-rule="evenodd"/><path stroke="#000000" stroke-width="1.0" stroke-linejoin="round" stroke-linecap="butt" d="m166.51181 766.7507c1.541565 0.29174805 0.20779419 1.2921753 9.249344 1.7506714c9.041565 0.45843506 36.0 1.291748 45.0 1.0c9.0 -0.29180908 7.5 -2.2922363 9.0 -2.7506714" fill-rule="evenodd"/><path fill="#000000" fill-opacity="0.0" d="m221.26247 693.50134c-1.458435 11.416443 -7.292206 57.082214 -8.750656 68.49866" fill-rule="evenodd"/><path stroke="#000000" stroke-width="1.0" stroke-linejoin="round" stroke-linecap="butt" d="m221.26247 693.50134c-1.458435 11.416443 -7.292206 57.082214 -8.750656 68.49866" fill-rule="evenodd"/><path fill="#000000" fill-opacity="0.0" d="m30.512466 724.9993l9.51181 0.25201416" fill-rule="evenodd"/><path stroke="#000000" stroke-width="1.0" stroke-linejoin="round" stroke-linecap="butt" d="m30.512466 724.9993l9.51181 0.25201416" fill-rule="evenodd"/><path fill="#000000" fill-opacity="0.0" d="m26.732283 655.0l13.795275 0" fill-rule="evenodd"/><path stroke="#000000" stroke-width="1.0" stroke-linejoin="round" stroke-linecap="butt" d="m26.732283 655.0l13.795275 0" fill-rule="evenodd"/><path fill="#000000" fill-opacity="0.0" d="m142.01247 616.5l0 8.75592" fill-rule="evenodd"/><path stroke="#000000" stroke-width="1.0" stroke-linejoin="round" stroke-linecap="butt" d="m142.01247 616.5l0 8.75592" fill-rule="evenodd"/><path fill="#000000" fill-opacity="0.0" d="m183.1916 104.091866l37.007874 510.99213" fill-rule="evenodd"/><path stroke="#000000" stroke-width="8.0" stroke-linejoin="round" stroke-linecap="butt" d="m183.1916 104.091866l37.007874 510.99213" fill-rule="evenodd"/><path fill="#000000" fill-opacity="0.0" d="m189.0 142.0l194.99213 498.99213" fill-rule="evenodd"/><path stroke="#000000" stroke-width="1.0" stroke-linejoin="round" stroke-linecap="butt" d="m189.0 142.0l194.99213 498.99213" fill-rule="evenodd"/><path fill="#000000" fill-opacity="0.0" d="m184.0 105.0l-93.98425 -1.0078735" fill-rule="evenodd"/><path stroke="#000000" stroke-width="1.0" stroke-linejoin="round" stroke-linecap="butt" d="m184.0 105.0l-93.98425 -1.0078735" fill-rule="evenodd"/><path fill="#000000" fill-opacity="0.0" d="m56.0 599.0l161.00787 0" fill-rule="evenodd"/><path stroke="#000000" stroke-width="4.0" stroke-linejoin="round" stroke-linecap="butt" d="m56.0 599.0l161.00787 0" fill-rule="evenodd"/><path fill="#000000" fill-opacity="0.0" d="m91.00131 104.0c-1.1666641 6.166664 -4.666664 21.666664 -7.0 37.0c-2.3333359 15.333328 -4.5 33.66667 -7.0 55.0c-2.5 21.333328 -5.833336 48.16667 -8.0 73.0c-2.1666641 24.833344 -3.6666641 49.833344 -5.0 76.0c-1.3333321 26.166656 -2.166668 53.333344 -3.0 81.0c-0.83333206 27.666656 -1.8333321 56.666656 -2.0 85.0c-0.16666794 28.333313 0.83333206 70.83331 1.0 85.0" fill-rule="evenodd"/><path stroke="#000000" stroke-width="1.0" stroke-linejoin="round" stroke-linecap="butt" d="m91.00131 104.0c-1.1666641 6.166664 -4.666664 21.666664 -7.0 37.0c-2.3333359 15.333328 -4.5 33.66667 -7.0 55.0c-2.5 21.333328 -5.833336 48.16667 -8.0 73.0c-2.1666641 24.833344 -3.6666641 49.833344 -5.0 76.0c-1.3333321 26.166656 -2.166668 53.333344 -3.0 81.0c-0.83333206 27.666656 -1.8333321 56.666656 -2.0 85.0c-0.16666794 28.333313 0.83333206 70.83331 1.0 85.0" fill-rule="evenodd"/><path fill="#000000" fill-opacity="0.0" d="m85.0 140.0l98.01575 0" fill-rule="evenodd"/><path stroke="#000000" stroke-width="1.0" stroke-linejoin="round" stroke-linecap="butt" d="m85.0 140.0l98.01575 0" fill-rule="evenodd"/><path fill="#000000" fill-opacity="0.0" d="m78.0 195.0l108.0 1.0078735" fill-rule="evenodd"/><path stroke="#000000" stroke-width="1.0" stroke-linejoin="round" stroke-linecap="butt" d="m78.0 195.0l108.0 1.0078735" fill-rule="evenodd"/><path fill="#000000" fill-opacity="0.0" d="m71.0 270.0l120.0 1.0078735" fill-rule="evenodd"/><path stroke="#000000" stroke-width="1.0" stroke-linejoin="round" stroke-linecap="butt" d="m71.0 270.0l120.0 1.0078735" fill-rule="evenodd"/><path fill="#000000" fill-opacity="0.0" d="m66.0 343.0l130.99213 2.015747" fill-rule="evenodd"/><path stroke="#000000" stroke-width="1.0" stroke-linejoin="round" stroke-linecap="butt" d="m66.0 343.0l130.99213 2.015747" fill-rule="evenodd"/><path fill="#000000" fill-opacity="0.0" d="m62.0 427.0l145.00787 1.0078735" fill-rule="evenodd"/><path stroke="#000000" stroke-width="1.0" stroke-linejoin="round" stroke-linecap="butt" d="m62.0 427.0l145.00787 1.0078735" fill-rule="evenodd"/><path fill="#000000" fill-opacity="0.0" d="m60.0 511.0l150.99213 1.0078735" fill-rule="evenodd"/><path stroke="#000000" stroke-width="1.0" stroke-linejoin="round" stroke-linecap="butt" d="m60.0 511.0l150.99213 1.0078735" fill-rule="evenodd"/><path fill="#000000" fill-opacity="0.0" d="m-13.40394 -20.0l403.40155 0l0 84.0l-403.40155 0z" fill-rule="evenodd"/><path fill="#000000" d="m2.3929346 81.159996l0 -68.71875l20.765625 0l12.468748 46.875l12.328125 -46.875l20.812504 0l0 68.71875l-12.890629 0l0 -54.09375l-13.640625 54.09375l-13.359373 0l-13.59375 -54.09375l0 54.09375l-12.890625 0zm133.07812 0l0 -68.71875l13.875 0l0 68.71875l-13.875 0zm80.578125 0l0 -68.71875l13.5 0l28.125015 45.890625l0 -45.890625l12.890625 0l0 68.71875l-13.921875 0l-27.70314 -44.8125l0 44.8125l-12.890625 0zm122.10939 0l0 -68.71875l13.875 0l0 68.71875l-13.875 0z" fill-rule="nonzero"/><path fill="#000000" fill-opacity="0.0" d="m63.67979 749.51184l310.33072 0l0 84.0l-310.33072 0z" fill-rule="evenodd"/><path fill="#000000" d="m77.03916 834.7812l12.75 -1.40625q0.46875 3.890625 2.4375 5.765625q1.96875 1.875 5.203125 1.875q4.078125 0 6.9375 -3.75q2.859375 -3.75 3.65625 -15.5625q-4.96875 5.765625 -12.421875 5.765625q-8.109375 0 -14.0 -6.25q-5.875 -6.265625 -5.875 -16.296875q0 -10.453125 6.203125 -16.84375q6.21875 -6.40625 15.828125 -6.40625q10.453125 0 17.15625 8.09375q6.703125 8.078125 6.703125 26.59375q0 18.84375 -6.984375 27.1875q-6.984375 8.34375 -18.1875 8.34375q-8.0625 0 -13.03125 -4.28125q-4.96875 -4.296875 -6.375 -12.828125zm29.8125 -28.78125q0 -6.375 -2.9375 -9.890625q-2.921875 -3.515625 -6.765625 -3.515625q-3.65625 0 -6.078125 2.890625q-2.40625 2.875 -2.40625 9.4375q0 6.65625 2.625 9.78125q2.625 3.109375 6.5625 3.109375q3.796875 0 6.390625 -3.0q2.609375 -3.0 2.609375 -8.8125zm76.92188 28.78125l12.75 -1.40625q0.46875 3.890625 2.4375 5.765625q1.96875 1.875 5.203125 1.875q4.078125 0 6.9375 -3.75q2.859375 -3.75 3.65625 -15.5625q-4.96875 5.765625 -12.421875 5.765625q-8.109375 0 -14.0 -6.25q-5.875 -6.265625 -5.875 -16.296875q0 -10.453125 6.203125 -16.84375q6.21875 -6.40625 15.828125 -6.40625q10.453125 0 17.15625 8.09375q6.703125 8.078125 6.703125 26.59375q0 18.84375 -6.984375 27.1875q-6.984375 8.34375 -18.1875 8.34375q-8.0625 0 -13.03125 -4.28125q-4.96875 -4.296875 -6.375 -12.828125zm29.8125 -28.78125q0 -6.375 -2.9375 -9.890625q-2.921875 -3.515625 -6.765625 -3.515625q-3.65625 0 -6.078125 2.890625q-2.40625 2.875 -2.40625 9.4375q0 6.65625 2.625 9.78125q2.625 3.109375 6.5625 3.109375q3.796875 0 6.390625 -3.0q2.609375 -3.0 2.609375 -8.8125zm98.906235 -24.328125q9.984375 0 15.609375 7.125q6.703125 8.4375 6.703125 27.984375q0 19.5 -6.75 28.03125q-5.578125 7.03125 -15.5625 7.03125q-10.03125 0 -16.171875 -7.703125q-6.140625 -7.71875 -6.140625 -27.5q0 -19.40625 6.75 -27.9375q5.578125 -7.03125 15.5625 -7.03125zm0 10.921875q-2.390625 0 -4.265625 1.53125q-1.875 1.515625 -2.90625 5.453125q-1.359375 5.109375 -1.359375 17.203125q0 12.09375 1.21875 16.625q1.21875 4.515625 3.0625 6.015625q1.859375 1.5 4.25 1.5q2.390625 0 4.265625 -1.515625q1.875 -1.53125 2.90625 -5.46875q1.359375 -5.0625 1.359375 -17.15625q0 -12.09375 -1.21875 -16.609375q-1.21875 -4.53125 -3.078125 -6.046875q-1.84375 -1.53125 -4.234375 -1.53125z" fill-rule="nonzero"/></g></svg>